%TF.GenerationSoftware,KiCad,Pcbnew,8.0.5*%
%TF.CreationDate,2025-05-11T19:03:53-04:00*%
%TF.ProjectId,Business_Card,42757369-6e65-4737-935f-436172642e6b,rev?*%
%TF.SameCoordinates,Original*%
%TF.FileFunction,Legend,Bot*%
%TF.FilePolarity,Positive*%
%FSLAX46Y46*%
G04 Gerber Fmt 4.6, Leading zero omitted, Abs format (unit mm)*
G04 Created by KiCad (PCBNEW 8.0.5) date 2025-05-11 19:03:53*
%MOMM*%
%LPD*%
G01*
G04 APERTURE LIST*
%ADD10C,0.200000*%
%ADD11C,0.100000*%
%ADD12C,0.150000*%
%ADD13C,0.120000*%
%ADD14C,0.127000*%
%ADD15C,0.152400*%
G04 APERTURE END LIST*
D10*
X132032780Y-39150625D02*
X132032780Y-38531578D01*
X132032780Y-38531578D02*
X131651828Y-38864911D01*
X131651828Y-38864911D02*
X131651828Y-38722054D01*
X131651828Y-38722054D02*
X131604209Y-38626816D01*
X131604209Y-38626816D02*
X131556590Y-38579197D01*
X131556590Y-38579197D02*
X131461352Y-38531578D01*
X131461352Y-38531578D02*
X131223257Y-38531578D01*
X131223257Y-38531578D02*
X131128019Y-38579197D01*
X131128019Y-38579197D02*
X131080400Y-38626816D01*
X131080400Y-38626816D02*
X131032780Y-38722054D01*
X131032780Y-38722054D02*
X131032780Y-39007768D01*
X131032780Y-39007768D02*
X131080400Y-39103006D01*
X131080400Y-39103006D02*
X131128019Y-39150625D01*
X132032780Y-38245863D02*
X131032780Y-37912530D01*
X131032780Y-37912530D02*
X132032780Y-37579197D01*
X132032780Y-37341101D02*
X132032780Y-36722054D01*
X132032780Y-36722054D02*
X131651828Y-37055387D01*
X131651828Y-37055387D02*
X131651828Y-36912530D01*
X131651828Y-36912530D02*
X131604209Y-36817292D01*
X131604209Y-36817292D02*
X131556590Y-36769673D01*
X131556590Y-36769673D02*
X131461352Y-36722054D01*
X131461352Y-36722054D02*
X131223257Y-36722054D01*
X131223257Y-36722054D02*
X131128019Y-36769673D01*
X131128019Y-36769673D02*
X131080400Y-36817292D01*
X131080400Y-36817292D02*
X131032780Y-36912530D01*
X131032780Y-36912530D02*
X131032780Y-37198244D01*
X131032780Y-37198244D02*
X131080400Y-37293482D01*
X131080400Y-37293482D02*
X131128019Y-37341101D01*
X134732780Y-39817291D02*
X133923257Y-39817291D01*
X133923257Y-39817291D02*
X133828019Y-39769672D01*
X133828019Y-39769672D02*
X133780400Y-39722053D01*
X133780400Y-39722053D02*
X133732780Y-39626815D01*
X133732780Y-39626815D02*
X133732780Y-39436339D01*
X133732780Y-39436339D02*
X133780400Y-39341101D01*
X133780400Y-39341101D02*
X133828019Y-39293482D01*
X133828019Y-39293482D02*
X133923257Y-39245863D01*
X133923257Y-39245863D02*
X134732780Y-39245863D01*
X133732780Y-38769672D02*
X134732780Y-38769672D01*
X134732780Y-38769672D02*
X134732780Y-38388720D01*
X134732780Y-38388720D02*
X134685161Y-38293482D01*
X134685161Y-38293482D02*
X134637542Y-38245863D01*
X134637542Y-38245863D02*
X134542304Y-38198244D01*
X134542304Y-38198244D02*
X134399447Y-38198244D01*
X134399447Y-38198244D02*
X134304209Y-38245863D01*
X134304209Y-38245863D02*
X134256590Y-38293482D01*
X134256590Y-38293482D02*
X134208971Y-38388720D01*
X134208971Y-38388720D02*
X134208971Y-38769672D01*
X133732780Y-37769672D02*
X134732780Y-37769672D01*
X134732780Y-37769672D02*
X134732780Y-37531577D01*
X134732780Y-37531577D02*
X134685161Y-37388720D01*
X134685161Y-37388720D02*
X134589923Y-37293482D01*
X134589923Y-37293482D02*
X134494685Y-37245863D01*
X134494685Y-37245863D02*
X134304209Y-37198244D01*
X134304209Y-37198244D02*
X134161352Y-37198244D01*
X134161352Y-37198244D02*
X133970876Y-37245863D01*
X133970876Y-37245863D02*
X133875638Y-37293482D01*
X133875638Y-37293482D02*
X133780400Y-37388720D01*
X133780400Y-37388720D02*
X133732780Y-37531577D01*
X133732780Y-37531577D02*
X133732780Y-37769672D01*
X133732780Y-36769672D02*
X134732780Y-36769672D01*
X136656590Y-39864911D02*
X136656590Y-39531578D01*
X136132780Y-39388721D02*
X136132780Y-39864911D01*
X136132780Y-39864911D02*
X137132780Y-39864911D01*
X137132780Y-39864911D02*
X137132780Y-39388721D01*
X137132780Y-39055387D02*
X136132780Y-38388721D01*
X137132780Y-38388721D02*
X136132780Y-39055387D01*
X137132780Y-38150625D02*
X137132780Y-37579197D01*
X136132780Y-37864911D02*
X137132780Y-37864911D01*
X137037542Y-37293482D02*
X137085161Y-37245863D01*
X137085161Y-37245863D02*
X137132780Y-37150625D01*
X137132780Y-37150625D02*
X137132780Y-36912530D01*
X137132780Y-36912530D02*
X137085161Y-36817292D01*
X137085161Y-36817292D02*
X137037542Y-36769673D01*
X137037542Y-36769673D02*
X136942304Y-36722054D01*
X136942304Y-36722054D02*
X136847066Y-36722054D01*
X136847066Y-36722054D02*
X136704209Y-36769673D01*
X136704209Y-36769673D02*
X136132780Y-37341101D01*
X136132780Y-37341101D02*
X136132780Y-36722054D01*
X139256590Y-39864911D02*
X139256590Y-39531578D01*
X138732780Y-39388721D02*
X138732780Y-39864911D01*
X138732780Y-39864911D02*
X139732780Y-39864911D01*
X139732780Y-39864911D02*
X139732780Y-39388721D01*
X139732780Y-39055387D02*
X138732780Y-38388721D01*
X139732780Y-38388721D02*
X138732780Y-39055387D01*
X139732780Y-38150625D02*
X139732780Y-37579197D01*
X138732780Y-37864911D02*
X139732780Y-37864911D01*
X138732780Y-36722054D02*
X138732780Y-37293482D01*
X138732780Y-37007768D02*
X139732780Y-37007768D01*
X139732780Y-37007768D02*
X139589923Y-37103006D01*
X139589923Y-37103006D02*
X139494685Y-37198244D01*
X139494685Y-37198244D02*
X139447066Y-37293482D01*
X142285161Y-38817292D02*
X142332780Y-38912530D01*
X142332780Y-38912530D02*
X142332780Y-39055387D01*
X142332780Y-39055387D02*
X142285161Y-39198244D01*
X142285161Y-39198244D02*
X142189923Y-39293482D01*
X142189923Y-39293482D02*
X142094685Y-39341101D01*
X142094685Y-39341101D02*
X141904209Y-39388720D01*
X141904209Y-39388720D02*
X141761352Y-39388720D01*
X141761352Y-39388720D02*
X141570876Y-39341101D01*
X141570876Y-39341101D02*
X141475638Y-39293482D01*
X141475638Y-39293482D02*
X141380400Y-39198244D01*
X141380400Y-39198244D02*
X141332780Y-39055387D01*
X141332780Y-39055387D02*
X141332780Y-38960149D01*
X141332780Y-38960149D02*
X141380400Y-38817292D01*
X141380400Y-38817292D02*
X141428019Y-38769673D01*
X141428019Y-38769673D02*
X141761352Y-38769673D01*
X141761352Y-38769673D02*
X141761352Y-38960149D01*
X141332780Y-38341101D02*
X142332780Y-38341101D01*
X142332780Y-38341101D02*
X141332780Y-37769673D01*
X141332780Y-37769673D02*
X142332780Y-37769673D01*
X141332780Y-37293482D02*
X142332780Y-37293482D01*
X142332780Y-37293482D02*
X142332780Y-37055387D01*
X142332780Y-37055387D02*
X142285161Y-36912530D01*
X142285161Y-36912530D02*
X142189923Y-36817292D01*
X142189923Y-36817292D02*
X142094685Y-36769673D01*
X142094685Y-36769673D02*
X141904209Y-36722054D01*
X141904209Y-36722054D02*
X141761352Y-36722054D01*
X141761352Y-36722054D02*
X141570876Y-36769673D01*
X141570876Y-36769673D02*
X141475638Y-36817292D01*
X141475638Y-36817292D02*
X141380400Y-36912530D01*
X141380400Y-36912530D02*
X141332780Y-37055387D01*
X141332780Y-37055387D02*
X141332780Y-37293482D01*
X129585161Y-38817292D02*
X129632780Y-38912530D01*
X129632780Y-38912530D02*
X129632780Y-39055387D01*
X129632780Y-39055387D02*
X129585161Y-39198244D01*
X129585161Y-39198244D02*
X129489923Y-39293482D01*
X129489923Y-39293482D02*
X129394685Y-39341101D01*
X129394685Y-39341101D02*
X129204209Y-39388720D01*
X129204209Y-39388720D02*
X129061352Y-39388720D01*
X129061352Y-39388720D02*
X128870876Y-39341101D01*
X128870876Y-39341101D02*
X128775638Y-39293482D01*
X128775638Y-39293482D02*
X128680400Y-39198244D01*
X128680400Y-39198244D02*
X128632780Y-39055387D01*
X128632780Y-39055387D02*
X128632780Y-38960149D01*
X128632780Y-38960149D02*
X128680400Y-38817292D01*
X128680400Y-38817292D02*
X128728019Y-38769673D01*
X128728019Y-38769673D02*
X129061352Y-38769673D01*
X129061352Y-38769673D02*
X129061352Y-38960149D01*
X128632780Y-38341101D02*
X129632780Y-38341101D01*
X129632780Y-38341101D02*
X128632780Y-37769673D01*
X128632780Y-37769673D02*
X129632780Y-37769673D01*
X128632780Y-37293482D02*
X129632780Y-37293482D01*
X129632780Y-37293482D02*
X129632780Y-37055387D01*
X129632780Y-37055387D02*
X129585161Y-36912530D01*
X129585161Y-36912530D02*
X129489923Y-36817292D01*
X129489923Y-36817292D02*
X129394685Y-36769673D01*
X129394685Y-36769673D02*
X129204209Y-36722054D01*
X129204209Y-36722054D02*
X129061352Y-36722054D01*
X129061352Y-36722054D02*
X128870876Y-36769673D01*
X128870876Y-36769673D02*
X128775638Y-36817292D01*
X128775638Y-36817292D02*
X128680400Y-36912530D01*
X128680400Y-36912530D02*
X128632780Y-37055387D01*
X128632780Y-37055387D02*
X128632780Y-37293482D01*
X113998244Y-50667219D02*
X113807768Y-50667219D01*
X113807768Y-50667219D02*
X113712530Y-50714838D01*
X113712530Y-50714838D02*
X113617292Y-50810076D01*
X113617292Y-50810076D02*
X113569673Y-51000552D01*
X113569673Y-51000552D02*
X113569673Y-51333885D01*
X113569673Y-51333885D02*
X113617292Y-51524361D01*
X113617292Y-51524361D02*
X113712530Y-51619600D01*
X113712530Y-51619600D02*
X113807768Y-51667219D01*
X113807768Y-51667219D02*
X113998244Y-51667219D01*
X113998244Y-51667219D02*
X114093482Y-51619600D01*
X114093482Y-51619600D02*
X114188720Y-51524361D01*
X114188720Y-51524361D02*
X114236339Y-51333885D01*
X114236339Y-51333885D02*
X114236339Y-51000552D01*
X114236339Y-51000552D02*
X114188720Y-50810076D01*
X114188720Y-50810076D02*
X114093482Y-50714838D01*
X114093482Y-50714838D02*
X113998244Y-50667219D01*
X113141101Y-51667219D02*
X113141101Y-50667219D01*
X113141101Y-50667219D02*
X112569673Y-51667219D01*
X112569673Y-51667219D02*
X112569673Y-50667219D01*
X114664911Y-39367219D02*
X114474435Y-39367219D01*
X114474435Y-39367219D02*
X114379197Y-39414838D01*
X114379197Y-39414838D02*
X114283959Y-39510076D01*
X114283959Y-39510076D02*
X114236340Y-39700552D01*
X114236340Y-39700552D02*
X114236340Y-40033885D01*
X114236340Y-40033885D02*
X114283959Y-40224361D01*
X114283959Y-40224361D02*
X114379197Y-40319600D01*
X114379197Y-40319600D02*
X114474435Y-40367219D01*
X114474435Y-40367219D02*
X114664911Y-40367219D01*
X114664911Y-40367219D02*
X114760149Y-40319600D01*
X114760149Y-40319600D02*
X114855387Y-40224361D01*
X114855387Y-40224361D02*
X114903006Y-40033885D01*
X114903006Y-40033885D02*
X114903006Y-39700552D01*
X114903006Y-39700552D02*
X114855387Y-39510076D01*
X114855387Y-39510076D02*
X114760149Y-39414838D01*
X114760149Y-39414838D02*
X114664911Y-39367219D01*
X113474435Y-39843409D02*
X113807768Y-39843409D01*
X113807768Y-40367219D02*
X113807768Y-39367219D01*
X113807768Y-39367219D02*
X113331578Y-39367219D01*
X112617292Y-39843409D02*
X112950625Y-39843409D01*
X112950625Y-40367219D02*
X112950625Y-39367219D01*
X112950625Y-39367219D02*
X112474435Y-39367219D01*
D11*
X141369991Y-78962732D02*
X140662885Y-78255625D01*
X140662885Y-78255625D02*
X140494526Y-78423984D01*
X140494526Y-78423984D02*
X140427182Y-78558671D01*
X140427182Y-78558671D02*
X140427182Y-78693358D01*
X140427182Y-78693358D02*
X140460854Y-78794373D01*
X140460854Y-78794373D02*
X140561869Y-78962732D01*
X140561869Y-78962732D02*
X140662885Y-79063747D01*
X140662885Y-79063747D02*
X140831243Y-79164762D01*
X140831243Y-79164762D02*
X140932259Y-79198434D01*
X140932259Y-79198434D02*
X141066946Y-79198434D01*
X141066946Y-79198434D02*
X141201633Y-79131091D01*
X141201633Y-79131091D02*
X141369991Y-78962732D01*
X140292495Y-80040228D02*
X140696556Y-79636167D01*
X140494526Y-79838197D02*
X139787419Y-79131091D01*
X139787419Y-79131091D02*
X139955778Y-79164762D01*
X139955778Y-79164762D02*
X140090465Y-79164762D01*
X140090465Y-79164762D02*
X140191480Y-79131091D01*
X139147656Y-79770854D02*
X139080312Y-79838197D01*
X139080312Y-79838197D02*
X139046640Y-79939213D01*
X139046640Y-79939213D02*
X139046640Y-80006556D01*
X139046640Y-80006556D02*
X139080312Y-80107571D01*
X139080312Y-80107571D02*
X139181327Y-80275930D01*
X139181327Y-80275930D02*
X139349686Y-80444289D01*
X139349686Y-80444289D02*
X139518045Y-80545304D01*
X139518045Y-80545304D02*
X139619060Y-80578976D01*
X139619060Y-80578976D02*
X139686404Y-80578976D01*
X139686404Y-80578976D02*
X139787419Y-80545304D01*
X139787419Y-80545304D02*
X139854762Y-80477961D01*
X139854762Y-80477961D02*
X139888434Y-80376946D01*
X139888434Y-80376946D02*
X139888434Y-80309602D01*
X139888434Y-80309602D02*
X139854762Y-80208587D01*
X139854762Y-80208587D02*
X139753747Y-80040228D01*
X139753747Y-80040228D02*
X139585388Y-79871869D01*
X139585388Y-79871869D02*
X139417030Y-79770854D01*
X139417030Y-79770854D02*
X139316014Y-79737182D01*
X139316014Y-79737182D02*
X139248671Y-79737182D01*
X139248671Y-79737182D02*
X139147656Y-79770854D01*
D12*
X129966666Y-47754819D02*
X130299999Y-47278628D01*
X130538094Y-47754819D02*
X130538094Y-46754819D01*
X130538094Y-46754819D02*
X130157142Y-46754819D01*
X130157142Y-46754819D02*
X130061904Y-46802438D01*
X130061904Y-46802438D02*
X130014285Y-46850057D01*
X130014285Y-46850057D02*
X129966666Y-46945295D01*
X129966666Y-46945295D02*
X129966666Y-47088152D01*
X129966666Y-47088152D02*
X130014285Y-47183390D01*
X130014285Y-47183390D02*
X130061904Y-47231009D01*
X130061904Y-47231009D02*
X130157142Y-47278628D01*
X130157142Y-47278628D02*
X130538094Y-47278628D01*
X129109523Y-47088152D02*
X129109523Y-47754819D01*
X129347618Y-46707200D02*
X129585713Y-47421485D01*
X129585713Y-47421485D02*
X128966666Y-47421485D01*
D11*
X141033273Y-89299450D02*
X140326167Y-88592343D01*
X140326167Y-88592343D02*
X140157808Y-88760702D01*
X140157808Y-88760702D02*
X140090464Y-88895389D01*
X140090464Y-88895389D02*
X140090464Y-89030076D01*
X140090464Y-89030076D02*
X140124136Y-89131091D01*
X140124136Y-89131091D02*
X140225151Y-89299450D01*
X140225151Y-89299450D02*
X140326167Y-89400465D01*
X140326167Y-89400465D02*
X140494525Y-89501480D01*
X140494525Y-89501480D02*
X140595541Y-89535152D01*
X140595541Y-89535152D02*
X140730228Y-89535152D01*
X140730228Y-89535152D02*
X140864915Y-89467809D01*
X140864915Y-89467809D02*
X141033273Y-89299450D01*
X140292495Y-90040228D02*
X140157808Y-90174915D01*
X140157808Y-90174915D02*
X140056793Y-90208587D01*
X140056793Y-90208587D02*
X139989449Y-90208587D01*
X139989449Y-90208587D02*
X139821090Y-90174915D01*
X139821090Y-90174915D02*
X139652732Y-90073900D01*
X139652732Y-90073900D02*
X139383358Y-89804526D01*
X139383358Y-89804526D02*
X139349686Y-89703511D01*
X139349686Y-89703511D02*
X139349686Y-89636167D01*
X139349686Y-89636167D02*
X139383358Y-89535152D01*
X139383358Y-89535152D02*
X139518045Y-89400465D01*
X139518045Y-89400465D02*
X139619060Y-89366793D01*
X139619060Y-89366793D02*
X139686403Y-89366793D01*
X139686403Y-89366793D02*
X139787419Y-89400465D01*
X139787419Y-89400465D02*
X139955777Y-89568824D01*
X139955777Y-89568824D02*
X139989449Y-89669839D01*
X139989449Y-89669839D02*
X139989449Y-89737183D01*
X139989449Y-89737183D02*
X139955777Y-89838198D01*
X139955777Y-89838198D02*
X139821090Y-89972885D01*
X139821090Y-89972885D02*
X139720075Y-90006557D01*
X139720075Y-90006557D02*
X139652732Y-90006557D01*
X139652732Y-90006557D02*
X139551716Y-89972885D01*
X121369991Y-58962732D02*
X120662885Y-58255625D01*
X120662885Y-58255625D02*
X120494526Y-58423984D01*
X120494526Y-58423984D02*
X120427182Y-58558671D01*
X120427182Y-58558671D02*
X120427182Y-58693358D01*
X120427182Y-58693358D02*
X120460854Y-58794373D01*
X120460854Y-58794373D02*
X120561869Y-58962732D01*
X120561869Y-58962732D02*
X120662885Y-59063747D01*
X120662885Y-59063747D02*
X120831243Y-59164762D01*
X120831243Y-59164762D02*
X120932259Y-59198434D01*
X120932259Y-59198434D02*
X121066946Y-59198434D01*
X121066946Y-59198434D02*
X121201633Y-59131091D01*
X121201633Y-59131091D02*
X121369991Y-58962732D01*
X120056793Y-58996404D02*
X119989449Y-58996404D01*
X119989449Y-58996404D02*
X119888434Y-59030075D01*
X119888434Y-59030075D02*
X119720075Y-59198434D01*
X119720075Y-59198434D02*
X119686404Y-59299449D01*
X119686404Y-59299449D02*
X119686404Y-59366793D01*
X119686404Y-59366793D02*
X119720075Y-59467808D01*
X119720075Y-59467808D02*
X119787419Y-59535152D01*
X119787419Y-59535152D02*
X119922106Y-59602495D01*
X119922106Y-59602495D02*
X120730228Y-59602495D01*
X120730228Y-59602495D02*
X120292495Y-60040228D01*
X119147656Y-59770854D02*
X119080312Y-59838197D01*
X119080312Y-59838197D02*
X119046640Y-59939213D01*
X119046640Y-59939213D02*
X119046640Y-60006556D01*
X119046640Y-60006556D02*
X119080312Y-60107571D01*
X119080312Y-60107571D02*
X119181327Y-60275930D01*
X119181327Y-60275930D02*
X119349686Y-60444289D01*
X119349686Y-60444289D02*
X119518045Y-60545304D01*
X119518045Y-60545304D02*
X119619060Y-60578976D01*
X119619060Y-60578976D02*
X119686404Y-60578976D01*
X119686404Y-60578976D02*
X119787419Y-60545304D01*
X119787419Y-60545304D02*
X119854762Y-60477961D01*
X119854762Y-60477961D02*
X119888434Y-60376946D01*
X119888434Y-60376946D02*
X119888434Y-60309602D01*
X119888434Y-60309602D02*
X119854762Y-60208587D01*
X119854762Y-60208587D02*
X119753747Y-60040228D01*
X119753747Y-60040228D02*
X119585388Y-59871869D01*
X119585388Y-59871869D02*
X119417030Y-59770854D01*
X119417030Y-59770854D02*
X119316014Y-59737182D01*
X119316014Y-59737182D02*
X119248671Y-59737182D01*
X119248671Y-59737182D02*
X119147656Y-59770854D01*
X131369991Y-68962732D02*
X130662885Y-68255625D01*
X130662885Y-68255625D02*
X130494526Y-68423984D01*
X130494526Y-68423984D02*
X130427182Y-68558671D01*
X130427182Y-68558671D02*
X130427182Y-68693358D01*
X130427182Y-68693358D02*
X130460854Y-68794373D01*
X130460854Y-68794373D02*
X130561869Y-68962732D01*
X130561869Y-68962732D02*
X130662885Y-69063747D01*
X130662885Y-69063747D02*
X130831243Y-69164762D01*
X130831243Y-69164762D02*
X130932259Y-69198434D01*
X130932259Y-69198434D02*
X131066946Y-69198434D01*
X131066946Y-69198434D02*
X131201633Y-69131091D01*
X131201633Y-69131091D02*
X131369991Y-68962732D01*
X130292495Y-70040228D02*
X130696556Y-69636167D01*
X130494526Y-69838197D02*
X129787419Y-69131091D01*
X129787419Y-69131091D02*
X129955778Y-69164762D01*
X129955778Y-69164762D02*
X130090465Y-69164762D01*
X130090465Y-69164762D02*
X130191480Y-69131091D01*
X128945625Y-69972884D02*
X129282343Y-69636167D01*
X129282343Y-69636167D02*
X129652732Y-69939213D01*
X129652732Y-69939213D02*
X129585388Y-69939213D01*
X129585388Y-69939213D02*
X129484373Y-69972884D01*
X129484373Y-69972884D02*
X129316014Y-70141243D01*
X129316014Y-70141243D02*
X129282343Y-70242259D01*
X129282343Y-70242259D02*
X129282343Y-70309602D01*
X129282343Y-70309602D02*
X129316014Y-70410617D01*
X129316014Y-70410617D02*
X129484373Y-70578976D01*
X129484373Y-70578976D02*
X129585388Y-70612648D01*
X129585388Y-70612648D02*
X129652732Y-70612648D01*
X129652732Y-70612648D02*
X129753747Y-70578976D01*
X129753747Y-70578976D02*
X129922106Y-70410617D01*
X129922106Y-70410617D02*
X129955778Y-70309602D01*
X129955778Y-70309602D02*
X129955778Y-70242259D01*
X151033273Y-59299450D02*
X150326167Y-58592343D01*
X150326167Y-58592343D02*
X150157808Y-58760702D01*
X150157808Y-58760702D02*
X150090464Y-58895389D01*
X150090464Y-58895389D02*
X150090464Y-59030076D01*
X150090464Y-59030076D02*
X150124136Y-59131091D01*
X150124136Y-59131091D02*
X150225151Y-59299450D01*
X150225151Y-59299450D02*
X150326167Y-59400465D01*
X150326167Y-59400465D02*
X150494525Y-59501480D01*
X150494525Y-59501480D02*
X150595541Y-59535152D01*
X150595541Y-59535152D02*
X150730228Y-59535152D01*
X150730228Y-59535152D02*
X150864915Y-59467809D01*
X150864915Y-59467809D02*
X151033273Y-59299450D01*
X149821090Y-59703511D02*
X149854762Y-59602496D01*
X149854762Y-59602496D02*
X149854762Y-59535152D01*
X149854762Y-59535152D02*
X149821090Y-59434137D01*
X149821090Y-59434137D02*
X149787419Y-59400465D01*
X149787419Y-59400465D02*
X149686403Y-59366793D01*
X149686403Y-59366793D02*
X149619060Y-59366793D01*
X149619060Y-59366793D02*
X149518045Y-59400465D01*
X149518045Y-59400465D02*
X149383358Y-59535152D01*
X149383358Y-59535152D02*
X149349686Y-59636167D01*
X149349686Y-59636167D02*
X149349686Y-59703511D01*
X149349686Y-59703511D02*
X149383358Y-59804526D01*
X149383358Y-59804526D02*
X149417029Y-59838198D01*
X149417029Y-59838198D02*
X149518045Y-59871870D01*
X149518045Y-59871870D02*
X149585388Y-59871870D01*
X149585388Y-59871870D02*
X149686403Y-59838198D01*
X149686403Y-59838198D02*
X149821090Y-59703511D01*
X149821090Y-59703511D02*
X149922106Y-59669839D01*
X149922106Y-59669839D02*
X149989449Y-59669839D01*
X149989449Y-59669839D02*
X150090464Y-59703511D01*
X150090464Y-59703511D02*
X150225151Y-59838198D01*
X150225151Y-59838198D02*
X150258823Y-59939213D01*
X150258823Y-59939213D02*
X150258823Y-60006557D01*
X150258823Y-60006557D02*
X150225151Y-60107572D01*
X150225151Y-60107572D02*
X150090464Y-60242259D01*
X150090464Y-60242259D02*
X149989449Y-60275931D01*
X149989449Y-60275931D02*
X149922106Y-60275931D01*
X149922106Y-60275931D02*
X149821090Y-60242259D01*
X149821090Y-60242259D02*
X149686403Y-60107572D01*
X149686403Y-60107572D02*
X149652732Y-60006557D01*
X149652732Y-60006557D02*
X149652732Y-59939213D01*
X149652732Y-59939213D02*
X149686403Y-59838198D01*
D12*
X136866666Y-43454819D02*
X137199999Y-42978628D01*
X137438094Y-43454819D02*
X137438094Y-42454819D01*
X137438094Y-42454819D02*
X137057142Y-42454819D01*
X137057142Y-42454819D02*
X136961904Y-42502438D01*
X136961904Y-42502438D02*
X136914285Y-42550057D01*
X136914285Y-42550057D02*
X136866666Y-42645295D01*
X136866666Y-42645295D02*
X136866666Y-42788152D01*
X136866666Y-42788152D02*
X136914285Y-42883390D01*
X136914285Y-42883390D02*
X136961904Y-42931009D01*
X136961904Y-42931009D02*
X137057142Y-42978628D01*
X137057142Y-42978628D02*
X137438094Y-42978628D01*
X136485713Y-42550057D02*
X136438094Y-42502438D01*
X136438094Y-42502438D02*
X136342856Y-42454819D01*
X136342856Y-42454819D02*
X136104761Y-42454819D01*
X136104761Y-42454819D02*
X136009523Y-42502438D01*
X136009523Y-42502438D02*
X135961904Y-42550057D01*
X135961904Y-42550057D02*
X135914285Y-42645295D01*
X135914285Y-42645295D02*
X135914285Y-42740533D01*
X135914285Y-42740533D02*
X135961904Y-42883390D01*
X135961904Y-42883390D02*
X136533332Y-43454819D01*
X136533332Y-43454819D02*
X135914285Y-43454819D01*
X134166666Y-51054819D02*
X134499999Y-50578628D01*
X134738094Y-51054819D02*
X134738094Y-50054819D01*
X134738094Y-50054819D02*
X134357142Y-50054819D01*
X134357142Y-50054819D02*
X134261904Y-50102438D01*
X134261904Y-50102438D02*
X134214285Y-50150057D01*
X134214285Y-50150057D02*
X134166666Y-50245295D01*
X134166666Y-50245295D02*
X134166666Y-50388152D01*
X134166666Y-50388152D02*
X134214285Y-50483390D01*
X134214285Y-50483390D02*
X134261904Y-50531009D01*
X134261904Y-50531009D02*
X134357142Y-50578628D01*
X134357142Y-50578628D02*
X134738094Y-50578628D01*
X133261904Y-50054819D02*
X133738094Y-50054819D01*
X133738094Y-50054819D02*
X133785713Y-50531009D01*
X133785713Y-50531009D02*
X133738094Y-50483390D01*
X133738094Y-50483390D02*
X133642856Y-50435771D01*
X133642856Y-50435771D02*
X133404761Y-50435771D01*
X133404761Y-50435771D02*
X133309523Y-50483390D01*
X133309523Y-50483390D02*
X133261904Y-50531009D01*
X133261904Y-50531009D02*
X133214285Y-50626247D01*
X133214285Y-50626247D02*
X133214285Y-50864342D01*
X133214285Y-50864342D02*
X133261904Y-50959580D01*
X133261904Y-50959580D02*
X133309523Y-51007200D01*
X133309523Y-51007200D02*
X133404761Y-51054819D01*
X133404761Y-51054819D02*
X133642856Y-51054819D01*
X133642856Y-51054819D02*
X133738094Y-51007200D01*
X133738094Y-51007200D02*
X133785713Y-50959580D01*
D11*
X131369991Y-78962732D02*
X130662885Y-78255625D01*
X130662885Y-78255625D02*
X130494526Y-78423984D01*
X130494526Y-78423984D02*
X130427182Y-78558671D01*
X130427182Y-78558671D02*
X130427182Y-78693358D01*
X130427182Y-78693358D02*
X130460854Y-78794373D01*
X130460854Y-78794373D02*
X130561869Y-78962732D01*
X130561869Y-78962732D02*
X130662885Y-79063747D01*
X130662885Y-79063747D02*
X130831243Y-79164762D01*
X130831243Y-79164762D02*
X130932259Y-79198434D01*
X130932259Y-79198434D02*
X131066946Y-79198434D01*
X131066946Y-79198434D02*
X131201633Y-79131091D01*
X131201633Y-79131091D02*
X131369991Y-78962732D01*
X130292495Y-80040228D02*
X130696556Y-79636167D01*
X130494526Y-79838197D02*
X129787419Y-79131091D01*
X129787419Y-79131091D02*
X129955778Y-79164762D01*
X129955778Y-79164762D02*
X130090465Y-79164762D01*
X130090465Y-79164762D02*
X130191480Y-79131091D01*
X129214999Y-80174915D02*
X129686404Y-80646320D01*
X129113984Y-79737182D02*
X129787419Y-80073900D01*
X129787419Y-80073900D02*
X129349686Y-80511633D01*
D12*
X131435337Y-102019301D02*
X131292267Y-102066991D01*
X131292267Y-102066991D02*
X131053815Y-102066991D01*
X131053815Y-102066991D02*
X130958435Y-102019301D01*
X130958435Y-102019301D02*
X130910744Y-101971610D01*
X130910744Y-101971610D02*
X130863054Y-101876230D01*
X130863054Y-101876230D02*
X130863054Y-101780849D01*
X130863054Y-101780849D02*
X130910744Y-101685469D01*
X130910744Y-101685469D02*
X130958435Y-101637778D01*
X130958435Y-101637778D02*
X131053815Y-101590088D01*
X131053815Y-101590088D02*
X131244576Y-101542398D01*
X131244576Y-101542398D02*
X131339957Y-101494707D01*
X131339957Y-101494707D02*
X131387647Y-101447017D01*
X131387647Y-101447017D02*
X131435337Y-101351637D01*
X131435337Y-101351637D02*
X131435337Y-101256256D01*
X131435337Y-101256256D02*
X131387647Y-101160875D01*
X131387647Y-101160875D02*
X131339957Y-101113185D01*
X131339957Y-101113185D02*
X131244576Y-101065495D01*
X131244576Y-101065495D02*
X131006125Y-101065495D01*
X131006125Y-101065495D02*
X130863054Y-101113185D01*
X130529222Y-101065495D02*
X130290770Y-102066991D01*
X130290770Y-102066991D02*
X130100009Y-101351637D01*
X130100009Y-101351637D02*
X129909248Y-102066991D01*
X129909248Y-102066991D02*
X129670797Y-101065495D01*
X129336964Y-101160875D02*
X129289274Y-101113185D01*
X129289274Y-101113185D02*
X129193894Y-101065495D01*
X129193894Y-101065495D02*
X128955442Y-101065495D01*
X128955442Y-101065495D02*
X128860062Y-101113185D01*
X128860062Y-101113185D02*
X128812371Y-101160875D01*
X128812371Y-101160875D02*
X128764681Y-101256256D01*
X128764681Y-101256256D02*
X128764681Y-101351637D01*
X128764681Y-101351637D02*
X128812371Y-101494707D01*
X128812371Y-101494707D02*
X129384655Y-102066991D01*
X129384655Y-102066991D02*
X128764681Y-102066991D01*
D11*
X141369991Y-68962732D02*
X140662885Y-68255625D01*
X140662885Y-68255625D02*
X140494526Y-68423984D01*
X140494526Y-68423984D02*
X140427182Y-68558671D01*
X140427182Y-68558671D02*
X140427182Y-68693358D01*
X140427182Y-68693358D02*
X140460854Y-68794373D01*
X140460854Y-68794373D02*
X140561869Y-68962732D01*
X140561869Y-68962732D02*
X140662885Y-69063747D01*
X140662885Y-69063747D02*
X140831243Y-69164762D01*
X140831243Y-69164762D02*
X140932259Y-69198434D01*
X140932259Y-69198434D02*
X141066946Y-69198434D01*
X141066946Y-69198434D02*
X141201633Y-69131091D01*
X141201633Y-69131091D02*
X141369991Y-68962732D01*
X140292495Y-70040228D02*
X140696556Y-69636167D01*
X140494526Y-69838197D02*
X139787419Y-69131091D01*
X139787419Y-69131091D02*
X139955778Y-69164762D01*
X139955778Y-69164762D02*
X140090465Y-69164762D01*
X140090465Y-69164762D02*
X140191480Y-69131091D01*
X139619060Y-70713663D02*
X140023121Y-70309602D01*
X139821091Y-70511633D02*
X139113984Y-69804526D01*
X139113984Y-69804526D02*
X139282343Y-69838197D01*
X139282343Y-69838197D02*
X139417030Y-69838197D01*
X139417030Y-69838197D02*
X139518045Y-69804526D01*
X157635355Y-81906557D02*
X156928249Y-81199450D01*
X156928249Y-81199450D02*
X156759890Y-81367809D01*
X156759890Y-81367809D02*
X156692546Y-81502496D01*
X156692546Y-81502496D02*
X156692546Y-81637183D01*
X156692546Y-81637183D02*
X156726218Y-81738198D01*
X156726218Y-81738198D02*
X156827233Y-81906557D01*
X156827233Y-81906557D02*
X156928249Y-82007572D01*
X156928249Y-82007572D02*
X157096607Y-82108587D01*
X157096607Y-82108587D02*
X157197623Y-82142259D01*
X157197623Y-82142259D02*
X157332310Y-82142259D01*
X157332310Y-82142259D02*
X157466997Y-82074916D01*
X157466997Y-82074916D02*
X157635355Y-81906557D01*
X156322157Y-81940229D02*
X156254814Y-81940229D01*
X156254814Y-81940229D02*
X156153798Y-81973900D01*
X156153798Y-81973900D02*
X155985440Y-82142259D01*
X155985440Y-82142259D02*
X155951768Y-82243274D01*
X155951768Y-82243274D02*
X155951768Y-82310618D01*
X155951768Y-82310618D02*
X155985440Y-82411633D01*
X155985440Y-82411633D02*
X156052783Y-82478977D01*
X156052783Y-82478977D02*
X156187470Y-82546320D01*
X156187470Y-82546320D02*
X156995592Y-82546320D01*
X156995592Y-82546320D02*
X156557859Y-82984053D01*
X121369991Y-88962732D02*
X120662885Y-88255625D01*
X120662885Y-88255625D02*
X120494526Y-88423984D01*
X120494526Y-88423984D02*
X120427182Y-88558671D01*
X120427182Y-88558671D02*
X120427182Y-88693358D01*
X120427182Y-88693358D02*
X120460854Y-88794373D01*
X120460854Y-88794373D02*
X120561869Y-88962732D01*
X120561869Y-88962732D02*
X120662885Y-89063747D01*
X120662885Y-89063747D02*
X120831243Y-89164762D01*
X120831243Y-89164762D02*
X120932259Y-89198434D01*
X120932259Y-89198434D02*
X121066946Y-89198434D01*
X121066946Y-89198434D02*
X121201633Y-89131091D01*
X121201633Y-89131091D02*
X121369991Y-88962732D01*
X120292495Y-90040228D02*
X120696556Y-89636167D01*
X120494526Y-89838197D02*
X119787419Y-89131091D01*
X119787419Y-89131091D02*
X119955778Y-89164762D01*
X119955778Y-89164762D02*
X120090465Y-89164762D01*
X120090465Y-89164762D02*
X120191480Y-89131091D01*
X119349686Y-89568823D02*
X118878282Y-90040228D01*
X118878282Y-90040228D02*
X119888434Y-90444289D01*
D12*
X114018700Y-47309523D02*
X113971080Y-47166666D01*
X113971080Y-47166666D02*
X113971080Y-46928571D01*
X113971080Y-46928571D02*
X114018700Y-46833333D01*
X114018700Y-46833333D02*
X114066319Y-46785714D01*
X114066319Y-46785714D02*
X114161557Y-46738095D01*
X114161557Y-46738095D02*
X114256795Y-46738095D01*
X114256795Y-46738095D02*
X114352033Y-46785714D01*
X114352033Y-46785714D02*
X114399652Y-46833333D01*
X114399652Y-46833333D02*
X114447271Y-46928571D01*
X114447271Y-46928571D02*
X114494890Y-47119047D01*
X114494890Y-47119047D02*
X114542509Y-47214285D01*
X114542509Y-47214285D02*
X114590128Y-47261904D01*
X114590128Y-47261904D02*
X114685366Y-47309523D01*
X114685366Y-47309523D02*
X114780604Y-47309523D01*
X114780604Y-47309523D02*
X114875842Y-47261904D01*
X114875842Y-47261904D02*
X114923461Y-47214285D01*
X114923461Y-47214285D02*
X114971080Y-47119047D01*
X114971080Y-47119047D02*
X114971080Y-46880952D01*
X114971080Y-46880952D02*
X114923461Y-46738095D01*
X114018700Y-46357142D02*
X113971080Y-46214285D01*
X113971080Y-46214285D02*
X113971080Y-45976190D01*
X113971080Y-45976190D02*
X114018700Y-45880952D01*
X114018700Y-45880952D02*
X114066319Y-45833333D01*
X114066319Y-45833333D02*
X114161557Y-45785714D01*
X114161557Y-45785714D02*
X114256795Y-45785714D01*
X114256795Y-45785714D02*
X114352033Y-45833333D01*
X114352033Y-45833333D02*
X114399652Y-45880952D01*
X114399652Y-45880952D02*
X114447271Y-45976190D01*
X114447271Y-45976190D02*
X114494890Y-46166666D01*
X114494890Y-46166666D02*
X114542509Y-46261904D01*
X114542509Y-46261904D02*
X114590128Y-46309523D01*
X114590128Y-46309523D02*
X114685366Y-46357142D01*
X114685366Y-46357142D02*
X114780604Y-46357142D01*
X114780604Y-46357142D02*
X114875842Y-46309523D01*
X114875842Y-46309523D02*
X114923461Y-46261904D01*
X114923461Y-46261904D02*
X114971080Y-46166666D01*
X114971080Y-46166666D02*
X114971080Y-45928571D01*
X114971080Y-45928571D02*
X114923461Y-45785714D01*
X114971080Y-45452380D02*
X113971080Y-45214285D01*
X113971080Y-45214285D02*
X114685366Y-45023809D01*
X114685366Y-45023809D02*
X113971080Y-44833333D01*
X113971080Y-44833333D02*
X114971080Y-44595238D01*
X113971080Y-43690476D02*
X113971080Y-44261904D01*
X113971080Y-43976190D02*
X114971080Y-43976190D01*
X114971080Y-43976190D02*
X114828223Y-44071428D01*
X114828223Y-44071428D02*
X114732985Y-44166666D01*
X114732985Y-44166666D02*
X114685366Y-44261904D01*
X126961904Y-39654819D02*
X126961904Y-40464342D01*
X126961904Y-40464342D02*
X126914285Y-40559580D01*
X126914285Y-40559580D02*
X126866666Y-40607200D01*
X126866666Y-40607200D02*
X126771428Y-40654819D01*
X126771428Y-40654819D02*
X126580952Y-40654819D01*
X126580952Y-40654819D02*
X126485714Y-40607200D01*
X126485714Y-40607200D02*
X126438095Y-40559580D01*
X126438095Y-40559580D02*
X126390476Y-40464342D01*
X126390476Y-40464342D02*
X126390476Y-39654819D01*
X125390476Y-40654819D02*
X125961904Y-40654819D01*
X125676190Y-40654819D02*
X125676190Y-39654819D01*
X125676190Y-39654819D02*
X125771428Y-39797676D01*
X125771428Y-39797676D02*
X125866666Y-39892914D01*
X125866666Y-39892914D02*
X125961904Y-39940533D01*
X132566666Y-44454819D02*
X132899999Y-43978628D01*
X133138094Y-44454819D02*
X133138094Y-43454819D01*
X133138094Y-43454819D02*
X132757142Y-43454819D01*
X132757142Y-43454819D02*
X132661904Y-43502438D01*
X132661904Y-43502438D02*
X132614285Y-43550057D01*
X132614285Y-43550057D02*
X132566666Y-43645295D01*
X132566666Y-43645295D02*
X132566666Y-43788152D01*
X132566666Y-43788152D02*
X132614285Y-43883390D01*
X132614285Y-43883390D02*
X132661904Y-43931009D01*
X132661904Y-43931009D02*
X132757142Y-43978628D01*
X132757142Y-43978628D02*
X133138094Y-43978628D01*
X132233332Y-43454819D02*
X131614285Y-43454819D01*
X131614285Y-43454819D02*
X131947618Y-43835771D01*
X131947618Y-43835771D02*
X131804761Y-43835771D01*
X131804761Y-43835771D02*
X131709523Y-43883390D01*
X131709523Y-43883390D02*
X131661904Y-43931009D01*
X131661904Y-43931009D02*
X131614285Y-44026247D01*
X131614285Y-44026247D02*
X131614285Y-44264342D01*
X131614285Y-44264342D02*
X131661904Y-44359580D01*
X131661904Y-44359580D02*
X131709523Y-44407200D01*
X131709523Y-44407200D02*
X131804761Y-44454819D01*
X131804761Y-44454819D02*
X132090475Y-44454819D01*
X132090475Y-44454819D02*
X132185713Y-44407200D01*
X132185713Y-44407200D02*
X132233332Y-44359580D01*
D11*
X151033273Y-79299450D02*
X150326167Y-78592343D01*
X150326167Y-78592343D02*
X150157808Y-78760702D01*
X150157808Y-78760702D02*
X150090464Y-78895389D01*
X150090464Y-78895389D02*
X150090464Y-79030076D01*
X150090464Y-79030076D02*
X150124136Y-79131091D01*
X150124136Y-79131091D02*
X150225151Y-79299450D01*
X150225151Y-79299450D02*
X150326167Y-79400465D01*
X150326167Y-79400465D02*
X150494525Y-79501480D01*
X150494525Y-79501480D02*
X150595541Y-79535152D01*
X150595541Y-79535152D02*
X150730228Y-79535152D01*
X150730228Y-79535152D02*
X150864915Y-79467809D01*
X150864915Y-79467809D02*
X151033273Y-79299450D01*
X149316014Y-79602496D02*
X149450701Y-79467809D01*
X149450701Y-79467809D02*
X149551716Y-79434137D01*
X149551716Y-79434137D02*
X149619060Y-79434137D01*
X149619060Y-79434137D02*
X149787419Y-79467809D01*
X149787419Y-79467809D02*
X149955777Y-79568824D01*
X149955777Y-79568824D02*
X150225151Y-79838198D01*
X150225151Y-79838198D02*
X150258823Y-79939213D01*
X150258823Y-79939213D02*
X150258823Y-80006557D01*
X150258823Y-80006557D02*
X150225151Y-80107572D01*
X150225151Y-80107572D02*
X150090464Y-80242259D01*
X150090464Y-80242259D02*
X149989449Y-80275931D01*
X149989449Y-80275931D02*
X149922106Y-80275931D01*
X149922106Y-80275931D02*
X149821090Y-80242259D01*
X149821090Y-80242259D02*
X149652732Y-80073900D01*
X149652732Y-80073900D02*
X149619060Y-79972885D01*
X149619060Y-79972885D02*
X149619060Y-79905541D01*
X149619060Y-79905541D02*
X149652732Y-79804526D01*
X149652732Y-79804526D02*
X149787419Y-79669839D01*
X149787419Y-79669839D02*
X149888434Y-79636167D01*
X149888434Y-79636167D02*
X149955777Y-79636167D01*
X149955777Y-79636167D02*
X150056793Y-79669839D01*
D12*
X147435337Y-102019301D02*
X147292267Y-102066991D01*
X147292267Y-102066991D02*
X147053815Y-102066991D01*
X147053815Y-102066991D02*
X146958435Y-102019301D01*
X146958435Y-102019301D02*
X146910744Y-101971610D01*
X146910744Y-101971610D02*
X146863054Y-101876230D01*
X146863054Y-101876230D02*
X146863054Y-101780849D01*
X146863054Y-101780849D02*
X146910744Y-101685469D01*
X146910744Y-101685469D02*
X146958435Y-101637778D01*
X146958435Y-101637778D02*
X147053815Y-101590088D01*
X147053815Y-101590088D02*
X147244576Y-101542398D01*
X147244576Y-101542398D02*
X147339957Y-101494707D01*
X147339957Y-101494707D02*
X147387647Y-101447017D01*
X147387647Y-101447017D02*
X147435337Y-101351637D01*
X147435337Y-101351637D02*
X147435337Y-101256256D01*
X147435337Y-101256256D02*
X147387647Y-101160875D01*
X147387647Y-101160875D02*
X147339957Y-101113185D01*
X147339957Y-101113185D02*
X147244576Y-101065495D01*
X147244576Y-101065495D02*
X147006125Y-101065495D01*
X147006125Y-101065495D02*
X146863054Y-101113185D01*
X146529222Y-101065495D02*
X146290770Y-102066991D01*
X146290770Y-102066991D02*
X146100009Y-101351637D01*
X146100009Y-101351637D02*
X145909248Y-102066991D01*
X145909248Y-102066991D02*
X145670797Y-101065495D01*
X144860062Y-101399327D02*
X144860062Y-102066991D01*
X145098513Y-101017805D02*
X145336964Y-101733159D01*
X145336964Y-101733159D02*
X144716991Y-101733159D01*
D11*
X157645355Y-71901532D02*
X156938249Y-71194425D01*
X156938249Y-71194425D02*
X156769890Y-71362784D01*
X156769890Y-71362784D02*
X156702546Y-71497471D01*
X156702546Y-71497471D02*
X156702546Y-71632158D01*
X156702546Y-71632158D02*
X156736218Y-71733173D01*
X156736218Y-71733173D02*
X156837233Y-71901532D01*
X156837233Y-71901532D02*
X156938249Y-72002547D01*
X156938249Y-72002547D02*
X157106607Y-72103562D01*
X157106607Y-72103562D02*
X157207623Y-72137234D01*
X157207623Y-72137234D02*
X157342310Y-72137234D01*
X157342310Y-72137234D02*
X157476997Y-72069891D01*
X157476997Y-72069891D02*
X157645355Y-71901532D01*
X156298485Y-71834188D02*
X155860753Y-72271921D01*
X155860753Y-72271921D02*
X156365829Y-72305593D01*
X156365829Y-72305593D02*
X156264814Y-72406608D01*
X156264814Y-72406608D02*
X156231142Y-72507623D01*
X156231142Y-72507623D02*
X156231142Y-72574967D01*
X156231142Y-72574967D02*
X156264814Y-72675982D01*
X156264814Y-72675982D02*
X156433172Y-72844341D01*
X156433172Y-72844341D02*
X156534188Y-72878013D01*
X156534188Y-72878013D02*
X156601531Y-72878013D01*
X156601531Y-72878013D02*
X156702546Y-72844341D01*
X156702546Y-72844341D02*
X156904577Y-72642310D01*
X156904577Y-72642310D02*
X156938249Y-72541295D01*
X156938249Y-72541295D02*
X156938249Y-72473952D01*
D12*
X139435337Y-109519301D02*
X139292267Y-109566991D01*
X139292267Y-109566991D02*
X139053815Y-109566991D01*
X139053815Y-109566991D02*
X138958435Y-109519301D01*
X138958435Y-109519301D02*
X138910744Y-109471610D01*
X138910744Y-109471610D02*
X138863054Y-109376230D01*
X138863054Y-109376230D02*
X138863054Y-109280849D01*
X138863054Y-109280849D02*
X138910744Y-109185469D01*
X138910744Y-109185469D02*
X138958435Y-109137778D01*
X138958435Y-109137778D02*
X139053815Y-109090088D01*
X139053815Y-109090088D02*
X139244576Y-109042398D01*
X139244576Y-109042398D02*
X139339957Y-108994707D01*
X139339957Y-108994707D02*
X139387647Y-108947017D01*
X139387647Y-108947017D02*
X139435337Y-108851637D01*
X139435337Y-108851637D02*
X139435337Y-108756256D01*
X139435337Y-108756256D02*
X139387647Y-108660875D01*
X139387647Y-108660875D02*
X139339957Y-108613185D01*
X139339957Y-108613185D02*
X139244576Y-108565495D01*
X139244576Y-108565495D02*
X139006125Y-108565495D01*
X139006125Y-108565495D02*
X138863054Y-108613185D01*
X138529222Y-108565495D02*
X138290770Y-109566991D01*
X138290770Y-109566991D02*
X138100009Y-108851637D01*
X138100009Y-108851637D02*
X137909248Y-109566991D01*
X137909248Y-109566991D02*
X137670797Y-108565495D01*
X137384655Y-108565495D02*
X136764681Y-108565495D01*
X136764681Y-108565495D02*
X137098513Y-108947017D01*
X137098513Y-108947017D02*
X136955442Y-108947017D01*
X136955442Y-108947017D02*
X136860062Y-108994707D01*
X136860062Y-108994707D02*
X136812371Y-109042398D01*
X136812371Y-109042398D02*
X136764681Y-109137778D01*
X136764681Y-109137778D02*
X136764681Y-109376230D01*
X136764681Y-109376230D02*
X136812371Y-109471610D01*
X136812371Y-109471610D02*
X136860062Y-109519301D01*
X136860062Y-109519301D02*
X136955442Y-109566991D01*
X136955442Y-109566991D02*
X137241584Y-109566991D01*
X137241584Y-109566991D02*
X137336964Y-109519301D01*
X137336964Y-109519301D02*
X137384655Y-109471610D01*
D11*
X131369991Y-58962732D02*
X130662885Y-58255625D01*
X130662885Y-58255625D02*
X130494526Y-58423984D01*
X130494526Y-58423984D02*
X130427182Y-58558671D01*
X130427182Y-58558671D02*
X130427182Y-58693358D01*
X130427182Y-58693358D02*
X130460854Y-58794373D01*
X130460854Y-58794373D02*
X130561869Y-58962732D01*
X130561869Y-58962732D02*
X130662885Y-59063747D01*
X130662885Y-59063747D02*
X130831243Y-59164762D01*
X130831243Y-59164762D02*
X130932259Y-59198434D01*
X130932259Y-59198434D02*
X131066946Y-59198434D01*
X131066946Y-59198434D02*
X131201633Y-59131091D01*
X131201633Y-59131091D02*
X131369991Y-58962732D01*
X130292495Y-60040228D02*
X130696556Y-59636167D01*
X130494526Y-59838197D02*
X129787419Y-59131091D01*
X129787419Y-59131091D02*
X129955778Y-59164762D01*
X129955778Y-59164762D02*
X130090465Y-59164762D01*
X130090465Y-59164762D02*
X130191480Y-59131091D01*
X128979297Y-59939213D02*
X129113984Y-59804526D01*
X129113984Y-59804526D02*
X129214999Y-59770854D01*
X129214999Y-59770854D02*
X129282343Y-59770854D01*
X129282343Y-59770854D02*
X129450701Y-59804526D01*
X129450701Y-59804526D02*
X129619060Y-59905541D01*
X129619060Y-59905541D02*
X129888434Y-60174915D01*
X129888434Y-60174915D02*
X129922106Y-60275930D01*
X129922106Y-60275930D02*
X129922106Y-60343274D01*
X129922106Y-60343274D02*
X129888434Y-60444289D01*
X129888434Y-60444289D02*
X129753747Y-60578976D01*
X129753747Y-60578976D02*
X129652732Y-60612648D01*
X129652732Y-60612648D02*
X129585388Y-60612648D01*
X129585388Y-60612648D02*
X129484373Y-60578976D01*
X129484373Y-60578976D02*
X129316014Y-60410617D01*
X129316014Y-60410617D02*
X129282343Y-60309602D01*
X129282343Y-60309602D02*
X129282343Y-60242259D01*
X129282343Y-60242259D02*
X129316014Y-60141243D01*
X129316014Y-60141243D02*
X129450701Y-60006556D01*
X129450701Y-60006556D02*
X129551717Y-59972884D01*
X129551717Y-59972884D02*
X129619060Y-59972884D01*
X129619060Y-59972884D02*
X129720075Y-60006556D01*
X141369991Y-58962732D02*
X140662885Y-58255625D01*
X140662885Y-58255625D02*
X140494526Y-58423984D01*
X140494526Y-58423984D02*
X140427182Y-58558671D01*
X140427182Y-58558671D02*
X140427182Y-58693358D01*
X140427182Y-58693358D02*
X140460854Y-58794373D01*
X140460854Y-58794373D02*
X140561869Y-58962732D01*
X140561869Y-58962732D02*
X140662885Y-59063747D01*
X140662885Y-59063747D02*
X140831243Y-59164762D01*
X140831243Y-59164762D02*
X140932259Y-59198434D01*
X140932259Y-59198434D02*
X141066946Y-59198434D01*
X141066946Y-59198434D02*
X141201633Y-59131091D01*
X141201633Y-59131091D02*
X141369991Y-58962732D01*
X140292495Y-60040228D02*
X140696556Y-59636167D01*
X140494526Y-59838197D02*
X139787419Y-59131091D01*
X139787419Y-59131091D02*
X139955778Y-59164762D01*
X139955778Y-59164762D02*
X140090465Y-59164762D01*
X140090465Y-59164762D02*
X140191480Y-59131091D01*
X139383358Y-59669839D02*
X139316014Y-59669839D01*
X139316014Y-59669839D02*
X139214999Y-59703510D01*
X139214999Y-59703510D02*
X139046640Y-59871869D01*
X139046640Y-59871869D02*
X139012969Y-59972884D01*
X139012969Y-59972884D02*
X139012969Y-60040228D01*
X139012969Y-60040228D02*
X139046640Y-60141243D01*
X139046640Y-60141243D02*
X139113984Y-60208587D01*
X139113984Y-60208587D02*
X139248671Y-60275930D01*
X139248671Y-60275930D02*
X140056793Y-60275930D01*
X140056793Y-60275930D02*
X139619060Y-60713663D01*
D12*
X153461702Y-45306533D02*
X153261702Y-45373200D01*
X153261702Y-45373200D02*
X153195035Y-45439866D01*
X153195035Y-45439866D02*
X153128368Y-45573200D01*
X153128368Y-45573200D02*
X153128368Y-45773200D01*
X153128368Y-45773200D02*
X153195035Y-45906533D01*
X153195035Y-45906533D02*
X153261702Y-45973200D01*
X153261702Y-45973200D02*
X153395035Y-46039866D01*
X153395035Y-46039866D02*
X153928368Y-46039866D01*
X153928368Y-46039866D02*
X153928368Y-44639866D01*
X153928368Y-44639866D02*
X153461702Y-44639866D01*
X153461702Y-44639866D02*
X153328368Y-44706533D01*
X153328368Y-44706533D02*
X153261702Y-44773200D01*
X153261702Y-44773200D02*
X153195035Y-44906533D01*
X153195035Y-44906533D02*
X153195035Y-45039866D01*
X153195035Y-45039866D02*
X153261702Y-45173200D01*
X153261702Y-45173200D02*
X153328368Y-45239866D01*
X153328368Y-45239866D02*
X153461702Y-45306533D01*
X153461702Y-45306533D02*
X153928368Y-45306533D01*
X152728368Y-44639866D02*
X151928368Y-44639866D01*
X152328368Y-46039866D02*
X152328368Y-44639866D01*
X150728368Y-46039866D02*
X151528368Y-46039866D01*
X151128368Y-46039866D02*
X151128368Y-44639866D01*
X151128368Y-44639866D02*
X151261701Y-44839866D01*
X151261701Y-44839866D02*
X151395035Y-44973200D01*
X151395035Y-44973200D02*
X151528368Y-45039866D01*
D11*
X157635355Y-91906557D02*
X156928249Y-91199450D01*
X156928249Y-91199450D02*
X156759890Y-91367809D01*
X156759890Y-91367809D02*
X156692546Y-91502496D01*
X156692546Y-91502496D02*
X156692546Y-91637183D01*
X156692546Y-91637183D02*
X156726218Y-91738198D01*
X156726218Y-91738198D02*
X156827233Y-91906557D01*
X156827233Y-91906557D02*
X156928249Y-92007572D01*
X156928249Y-92007572D02*
X157096607Y-92108587D01*
X157096607Y-92108587D02*
X157197623Y-92142259D01*
X157197623Y-92142259D02*
X157332310Y-92142259D01*
X157332310Y-92142259D02*
X157466997Y-92074916D01*
X157466997Y-92074916D02*
X157635355Y-91906557D01*
X156557859Y-92984053D02*
X156961920Y-92579992D01*
X156759890Y-92782022D02*
X156052783Y-92074916D01*
X156052783Y-92074916D02*
X156221142Y-92108587D01*
X156221142Y-92108587D02*
X156355829Y-92108587D01*
X156355829Y-92108587D02*
X156456844Y-92074916D01*
X151033273Y-89299450D02*
X150326167Y-88592343D01*
X150326167Y-88592343D02*
X150157808Y-88760702D01*
X150157808Y-88760702D02*
X150090464Y-88895389D01*
X150090464Y-88895389D02*
X150090464Y-89030076D01*
X150090464Y-89030076D02*
X150124136Y-89131091D01*
X150124136Y-89131091D02*
X150225151Y-89299450D01*
X150225151Y-89299450D02*
X150326167Y-89400465D01*
X150326167Y-89400465D02*
X150494525Y-89501480D01*
X150494525Y-89501480D02*
X150595541Y-89535152D01*
X150595541Y-89535152D02*
X150730228Y-89535152D01*
X150730228Y-89535152D02*
X150864915Y-89467809D01*
X150864915Y-89467809D02*
X151033273Y-89299450D01*
X149282342Y-89636167D02*
X149619060Y-89299450D01*
X149619060Y-89299450D02*
X149989449Y-89602496D01*
X149989449Y-89602496D02*
X149922106Y-89602496D01*
X149922106Y-89602496D02*
X149821090Y-89636167D01*
X149821090Y-89636167D02*
X149652732Y-89804526D01*
X149652732Y-89804526D02*
X149619060Y-89905541D01*
X149619060Y-89905541D02*
X149619060Y-89972885D01*
X149619060Y-89972885D02*
X149652732Y-90073900D01*
X149652732Y-90073900D02*
X149821090Y-90242259D01*
X149821090Y-90242259D02*
X149922106Y-90275931D01*
X149922106Y-90275931D02*
X149989449Y-90275931D01*
X149989449Y-90275931D02*
X150090464Y-90242259D01*
X150090464Y-90242259D02*
X150258823Y-90073900D01*
X150258823Y-90073900D02*
X150292495Y-89972885D01*
X150292495Y-89972885D02*
X150292495Y-89905541D01*
X151033273Y-69299450D02*
X150326167Y-68592343D01*
X150326167Y-68592343D02*
X150157808Y-68760702D01*
X150157808Y-68760702D02*
X150090464Y-68895389D01*
X150090464Y-68895389D02*
X150090464Y-69030076D01*
X150090464Y-69030076D02*
X150124136Y-69131091D01*
X150124136Y-69131091D02*
X150225151Y-69299450D01*
X150225151Y-69299450D02*
X150326167Y-69400465D01*
X150326167Y-69400465D02*
X150494525Y-69501480D01*
X150494525Y-69501480D02*
X150595541Y-69535152D01*
X150595541Y-69535152D02*
X150730228Y-69535152D01*
X150730228Y-69535152D02*
X150864915Y-69467809D01*
X150864915Y-69467809D02*
X151033273Y-69299450D01*
X149686403Y-69232106D02*
X149214999Y-69703511D01*
X149214999Y-69703511D02*
X150225151Y-70107572D01*
D12*
X129966666Y-42254819D02*
X130299999Y-41778628D01*
X130538094Y-42254819D02*
X130538094Y-41254819D01*
X130538094Y-41254819D02*
X130157142Y-41254819D01*
X130157142Y-41254819D02*
X130061904Y-41302438D01*
X130061904Y-41302438D02*
X130014285Y-41350057D01*
X130014285Y-41350057D02*
X129966666Y-41445295D01*
X129966666Y-41445295D02*
X129966666Y-41588152D01*
X129966666Y-41588152D02*
X130014285Y-41683390D01*
X130014285Y-41683390D02*
X130061904Y-41731009D01*
X130061904Y-41731009D02*
X130157142Y-41778628D01*
X130157142Y-41778628D02*
X130538094Y-41778628D01*
X129014285Y-42254819D02*
X129585713Y-42254819D01*
X129299999Y-42254819D02*
X129299999Y-41254819D01*
X129299999Y-41254819D02*
X129395237Y-41397676D01*
X129395237Y-41397676D02*
X129490475Y-41492914D01*
X129490475Y-41492914D02*
X129585713Y-41540533D01*
X121666666Y-37059580D02*
X121714285Y-37107200D01*
X121714285Y-37107200D02*
X121857142Y-37154819D01*
X121857142Y-37154819D02*
X121952380Y-37154819D01*
X121952380Y-37154819D02*
X122095237Y-37107200D01*
X122095237Y-37107200D02*
X122190475Y-37011961D01*
X122190475Y-37011961D02*
X122238094Y-36916723D01*
X122238094Y-36916723D02*
X122285713Y-36726247D01*
X122285713Y-36726247D02*
X122285713Y-36583390D01*
X122285713Y-36583390D02*
X122238094Y-36392914D01*
X122238094Y-36392914D02*
X122190475Y-36297676D01*
X122190475Y-36297676D02*
X122095237Y-36202438D01*
X122095237Y-36202438D02*
X121952380Y-36154819D01*
X121952380Y-36154819D02*
X121857142Y-36154819D01*
X121857142Y-36154819D02*
X121714285Y-36202438D01*
X121714285Y-36202438D02*
X121666666Y-36250057D01*
X120714285Y-37154819D02*
X121285713Y-37154819D01*
X120999999Y-37154819D02*
X120999999Y-36154819D01*
X120999999Y-36154819D02*
X121095237Y-36297676D01*
X121095237Y-36297676D02*
X121190475Y-36392914D01*
X121190475Y-36392914D02*
X121285713Y-36440533D01*
D11*
X121369991Y-68962732D02*
X120662885Y-68255625D01*
X120662885Y-68255625D02*
X120494526Y-68423984D01*
X120494526Y-68423984D02*
X120427182Y-68558671D01*
X120427182Y-68558671D02*
X120427182Y-68693358D01*
X120427182Y-68693358D02*
X120460854Y-68794373D01*
X120460854Y-68794373D02*
X120561869Y-68962732D01*
X120561869Y-68962732D02*
X120662885Y-69063747D01*
X120662885Y-69063747D02*
X120831243Y-69164762D01*
X120831243Y-69164762D02*
X120932259Y-69198434D01*
X120932259Y-69198434D02*
X121066946Y-69198434D01*
X121066946Y-69198434D02*
X121201633Y-69131091D01*
X121201633Y-69131091D02*
X121369991Y-68962732D01*
X120292495Y-70040228D02*
X120696556Y-69636167D01*
X120494526Y-69838197D02*
X119787419Y-69131091D01*
X119787419Y-69131091D02*
X119955778Y-69164762D01*
X119955778Y-69164762D02*
X120090465Y-69164762D01*
X120090465Y-69164762D02*
X120191480Y-69131091D01*
X119955778Y-70376946D02*
X119821091Y-70511633D01*
X119821091Y-70511633D02*
X119720075Y-70545304D01*
X119720075Y-70545304D02*
X119652732Y-70545304D01*
X119652732Y-70545304D02*
X119484373Y-70511633D01*
X119484373Y-70511633D02*
X119316014Y-70410617D01*
X119316014Y-70410617D02*
X119046640Y-70141243D01*
X119046640Y-70141243D02*
X119012969Y-70040228D01*
X119012969Y-70040228D02*
X119012969Y-69972884D01*
X119012969Y-69972884D02*
X119046640Y-69871869D01*
X119046640Y-69871869D02*
X119181327Y-69737182D01*
X119181327Y-69737182D02*
X119282343Y-69703510D01*
X119282343Y-69703510D02*
X119349686Y-69703510D01*
X119349686Y-69703510D02*
X119450701Y-69737182D01*
X119450701Y-69737182D02*
X119619060Y-69905541D01*
X119619060Y-69905541D02*
X119652732Y-70006556D01*
X119652732Y-70006556D02*
X119652732Y-70073900D01*
X119652732Y-70073900D02*
X119619060Y-70174915D01*
X119619060Y-70174915D02*
X119484373Y-70309602D01*
X119484373Y-70309602D02*
X119383358Y-70343274D01*
X119383358Y-70343274D02*
X119316014Y-70343274D01*
X119316014Y-70343274D02*
X119214999Y-70309602D01*
X131369991Y-88962732D02*
X130662885Y-88255625D01*
X130662885Y-88255625D02*
X130494526Y-88423984D01*
X130494526Y-88423984D02*
X130427182Y-88558671D01*
X130427182Y-88558671D02*
X130427182Y-88693358D01*
X130427182Y-88693358D02*
X130460854Y-88794373D01*
X130460854Y-88794373D02*
X130561869Y-88962732D01*
X130561869Y-88962732D02*
X130662885Y-89063747D01*
X130662885Y-89063747D02*
X130831243Y-89164762D01*
X130831243Y-89164762D02*
X130932259Y-89198434D01*
X130932259Y-89198434D02*
X131066946Y-89198434D01*
X131066946Y-89198434D02*
X131201633Y-89131091D01*
X131201633Y-89131091D02*
X131369991Y-88962732D01*
X130292495Y-90040228D02*
X130696556Y-89636167D01*
X130494526Y-89838197D02*
X129787419Y-89131091D01*
X129787419Y-89131091D02*
X129955778Y-89164762D01*
X129955778Y-89164762D02*
X130090465Y-89164762D01*
X130090465Y-89164762D02*
X130191480Y-89131091D01*
X129349686Y-89568823D02*
X128911953Y-90006556D01*
X128911953Y-90006556D02*
X129417030Y-90040228D01*
X129417030Y-90040228D02*
X129316014Y-90141243D01*
X129316014Y-90141243D02*
X129282343Y-90242259D01*
X129282343Y-90242259D02*
X129282343Y-90309602D01*
X129282343Y-90309602D02*
X129316014Y-90410617D01*
X129316014Y-90410617D02*
X129484373Y-90578976D01*
X129484373Y-90578976D02*
X129585388Y-90612648D01*
X129585388Y-90612648D02*
X129652732Y-90612648D01*
X129652732Y-90612648D02*
X129753747Y-90578976D01*
X129753747Y-90578976D02*
X129955778Y-90376946D01*
X129955778Y-90376946D02*
X129989449Y-90275930D01*
X129989449Y-90275930D02*
X129989449Y-90208587D01*
X157635355Y-61906557D02*
X156928249Y-61199450D01*
X156928249Y-61199450D02*
X156759890Y-61367809D01*
X156759890Y-61367809D02*
X156692546Y-61502496D01*
X156692546Y-61502496D02*
X156692546Y-61637183D01*
X156692546Y-61637183D02*
X156726218Y-61738198D01*
X156726218Y-61738198D02*
X156827233Y-61906557D01*
X156827233Y-61906557D02*
X156928249Y-62007572D01*
X156928249Y-62007572D02*
X157096607Y-62108587D01*
X157096607Y-62108587D02*
X157197623Y-62142259D01*
X157197623Y-62142259D02*
X157332310Y-62142259D01*
X157332310Y-62142259D02*
X157466997Y-62074916D01*
X157466997Y-62074916D02*
X157635355Y-61906557D01*
X156153798Y-62445305D02*
X156625203Y-62916709D01*
X156052783Y-62007572D02*
X156726218Y-62344290D01*
X156726218Y-62344290D02*
X156288485Y-62782022D01*
D12*
X139535327Y-94507821D02*
X139392257Y-94555511D01*
X139392257Y-94555511D02*
X139153805Y-94555511D01*
X139153805Y-94555511D02*
X139058425Y-94507821D01*
X139058425Y-94507821D02*
X139010734Y-94460130D01*
X139010734Y-94460130D02*
X138963044Y-94364750D01*
X138963044Y-94364750D02*
X138963044Y-94269369D01*
X138963044Y-94269369D02*
X139010734Y-94173989D01*
X139010734Y-94173989D02*
X139058425Y-94126298D01*
X139058425Y-94126298D02*
X139153805Y-94078608D01*
X139153805Y-94078608D02*
X139344566Y-94030918D01*
X139344566Y-94030918D02*
X139439947Y-93983227D01*
X139439947Y-93983227D02*
X139487637Y-93935537D01*
X139487637Y-93935537D02*
X139535327Y-93840157D01*
X139535327Y-93840157D02*
X139535327Y-93744776D01*
X139535327Y-93744776D02*
X139487637Y-93649395D01*
X139487637Y-93649395D02*
X139439947Y-93601705D01*
X139439947Y-93601705D02*
X139344566Y-93554015D01*
X139344566Y-93554015D02*
X139106115Y-93554015D01*
X139106115Y-93554015D02*
X138963044Y-93601705D01*
X138629212Y-93554015D02*
X138390760Y-94555511D01*
X138390760Y-94555511D02*
X138199999Y-93840157D01*
X138199999Y-93840157D02*
X138009238Y-94555511D01*
X138009238Y-94555511D02*
X137770787Y-93554015D01*
X136864671Y-94555511D02*
X137436954Y-94555511D01*
X137150813Y-94555511D02*
X137150813Y-93554015D01*
X137150813Y-93554015D02*
X137246193Y-93697086D01*
X137246193Y-93697086D02*
X137341574Y-93792466D01*
X137341574Y-93792466D02*
X137436954Y-93840157D01*
D11*
X121369991Y-78962732D02*
X120662885Y-78255625D01*
X120662885Y-78255625D02*
X120494526Y-78423984D01*
X120494526Y-78423984D02*
X120427182Y-78558671D01*
X120427182Y-78558671D02*
X120427182Y-78693358D01*
X120427182Y-78693358D02*
X120460854Y-78794373D01*
X120460854Y-78794373D02*
X120561869Y-78962732D01*
X120561869Y-78962732D02*
X120662885Y-79063747D01*
X120662885Y-79063747D02*
X120831243Y-79164762D01*
X120831243Y-79164762D02*
X120932259Y-79198434D01*
X120932259Y-79198434D02*
X121066946Y-79198434D01*
X121066946Y-79198434D02*
X121201633Y-79131091D01*
X121201633Y-79131091D02*
X121369991Y-78962732D01*
X120292495Y-80040228D02*
X120696556Y-79636167D01*
X120494526Y-79838197D02*
X119787419Y-79131091D01*
X119787419Y-79131091D02*
X119955778Y-79164762D01*
X119955778Y-79164762D02*
X120090465Y-79164762D01*
X120090465Y-79164762D02*
X120191480Y-79131091D01*
X119484373Y-80040228D02*
X119518045Y-79939213D01*
X119518045Y-79939213D02*
X119518045Y-79871869D01*
X119518045Y-79871869D02*
X119484373Y-79770854D01*
X119484373Y-79770854D02*
X119450701Y-79737182D01*
X119450701Y-79737182D02*
X119349686Y-79703510D01*
X119349686Y-79703510D02*
X119282343Y-79703510D01*
X119282343Y-79703510D02*
X119181327Y-79737182D01*
X119181327Y-79737182D02*
X119046640Y-79871869D01*
X119046640Y-79871869D02*
X119012969Y-79972884D01*
X119012969Y-79972884D02*
X119012969Y-80040228D01*
X119012969Y-80040228D02*
X119046640Y-80141243D01*
X119046640Y-80141243D02*
X119080312Y-80174915D01*
X119080312Y-80174915D02*
X119181327Y-80208587D01*
X119181327Y-80208587D02*
X119248671Y-80208587D01*
X119248671Y-80208587D02*
X119349686Y-80174915D01*
X119349686Y-80174915D02*
X119484373Y-80040228D01*
X119484373Y-80040228D02*
X119585388Y-80006556D01*
X119585388Y-80006556D02*
X119652732Y-80006556D01*
X119652732Y-80006556D02*
X119753747Y-80040228D01*
X119753747Y-80040228D02*
X119888434Y-80174915D01*
X119888434Y-80174915D02*
X119922106Y-80275930D01*
X119922106Y-80275930D02*
X119922106Y-80343274D01*
X119922106Y-80343274D02*
X119888434Y-80444289D01*
X119888434Y-80444289D02*
X119753747Y-80578976D01*
X119753747Y-80578976D02*
X119652732Y-80612648D01*
X119652732Y-80612648D02*
X119585388Y-80612648D01*
X119585388Y-80612648D02*
X119484373Y-80578976D01*
X119484373Y-80578976D02*
X119349686Y-80444289D01*
X119349686Y-80444289D02*
X119316014Y-80343274D01*
X119316014Y-80343274D02*
X119316014Y-80275930D01*
X119316014Y-80275930D02*
X119349686Y-80174915D01*
D13*
%TO.C,D10*%
X143879016Y-79957538D02*
X142273883Y-78352405D01*
X142273883Y-78352405D02*
X139526774Y-81099515D01*
X141131906Y-82704648D02*
X143879016Y-79957538D01*
%TO.C,R4*%
X132022500Y-47645276D02*
X132022500Y-48154724D01*
X130977500Y-47645276D02*
X130977500Y-48154724D01*
%TO.C,D9*%
X143879016Y-89957538D02*
X142273883Y-88352405D01*
X142273883Y-88352405D02*
X139526774Y-91099515D01*
X141131906Y-92704648D02*
X143879016Y-89957538D01*
%TO.C,D20*%
X123879016Y-59957538D02*
X122273883Y-58352405D01*
X122273883Y-58352405D02*
X119526774Y-61099515D01*
X121131906Y-62704648D02*
X123879016Y-59957538D01*
%TO.C,D15*%
X133879016Y-69957538D02*
X132273883Y-68352405D01*
X132273883Y-68352405D02*
X129526774Y-71099515D01*
X131131906Y-72704648D02*
X133879016Y-69957538D01*
%TO.C,D8*%
X153879016Y-59957538D02*
X152273883Y-58352405D01*
X152273883Y-58352405D02*
X149526774Y-61099515D01*
X151131906Y-62704648D02*
X153879016Y-59957538D01*
%TO.C,R2*%
X135422500Y-42645276D02*
X135422500Y-43154724D01*
X134377500Y-42645276D02*
X134377500Y-43154724D01*
%TO.C,R5*%
X134254724Y-49622500D02*
X133745276Y-49622500D01*
X134254724Y-48577500D02*
X133745276Y-48577500D01*
%TO.C,D14*%
X133879016Y-79957538D02*
X132273883Y-78352405D01*
X132273883Y-78352405D02*
X129526774Y-81099515D01*
X131131906Y-82704648D02*
X133879016Y-79957538D01*
D14*
%TO.C,SW2*%
X131500000Y-105300000D02*
G75*
G02*
X128700000Y-105300000I-1400000J0D01*
G01*
X128700000Y-105300000D02*
G75*
G02*
X131500000Y-105300000I1400000J0D01*
G01*
X132650000Y-106256250D02*
X132650000Y-104343750D01*
X128187500Y-107850000D02*
X132012500Y-107850000D01*
X128187500Y-102750000D02*
X132012500Y-102750000D01*
X127550000Y-106256250D02*
X127550000Y-104343750D01*
D13*
%TO.C,D11*%
X143879016Y-69957538D02*
X142273883Y-68352405D01*
X142273883Y-68352405D02*
X139526774Y-71099515D01*
X141131906Y-72704648D02*
X143879016Y-69957538D01*
%TO.C,D2*%
X157879016Y-79957538D02*
X156273883Y-78352405D01*
X156273883Y-78352405D02*
X153526774Y-81099515D01*
X155131906Y-82704648D02*
X157879016Y-79957538D01*
%TO.C,D17*%
X123879016Y-89957538D02*
X122273883Y-88352405D01*
X122273883Y-88352405D02*
X119526774Y-91099515D01*
X121131906Y-92704648D02*
X123879016Y-89957538D01*
D15*
%TO.C,SSW1*%
X116302900Y-50122800D02*
X116302900Y-48828040D01*
X116302900Y-47171960D02*
X116302900Y-46328040D01*
X116302900Y-44671960D02*
X116302900Y-43828040D01*
X116302900Y-42171960D02*
X116302900Y-40877200D01*
X116302900Y-40877200D02*
X112620000Y-40877200D01*
X112620000Y-50122800D02*
X116302900Y-50122800D01*
D13*
%TO.C,U1*%
X120840000Y-50200000D02*
X120360000Y-50200000D01*
X120600000Y-49870000D01*
X120840000Y-50200000D01*
G36*
X120840000Y-50200000D02*
G01*
X120360000Y-50200000D01*
X120600000Y-49870000D01*
X120840000Y-50200000D01*
G37*
X125250000Y-49935000D02*
X123300000Y-49935000D01*
X125250000Y-41065000D02*
X123300000Y-41065000D01*
X121350000Y-49935000D02*
X123300000Y-49935000D01*
X121350000Y-41065000D02*
X123300000Y-41065000D01*
%TO.C,R3*%
X132945276Y-45922500D02*
X133454724Y-45922500D01*
X132945276Y-44877500D02*
X133454724Y-44877500D01*
%TO.C,D6*%
X153879016Y-79957538D02*
X152273883Y-78352405D01*
X152273883Y-78352405D02*
X149526774Y-81099515D01*
X151131906Y-82704648D02*
X153879016Y-79957538D01*
D14*
%TO.C,SW4*%
X147500000Y-105300000D02*
G75*
G02*
X144700000Y-105300000I-1400000J0D01*
G01*
X144700000Y-105300000D02*
G75*
G02*
X147500000Y-105300000I1400000J0D01*
G01*
X148650000Y-106256250D02*
X148650000Y-104343750D01*
X144187500Y-107850000D02*
X148012500Y-107850000D01*
X144187500Y-102750000D02*
X148012500Y-102750000D01*
X143550000Y-106256250D02*
X143550000Y-104343750D01*
D13*
%TO.C,D3*%
X157879016Y-69957538D02*
X156273883Y-68352405D01*
X156273883Y-68352405D02*
X153526774Y-71099515D01*
X155131906Y-72704648D02*
X157879016Y-69957538D01*
D14*
%TO.C,SW3*%
X139500000Y-112800000D02*
G75*
G02*
X136700000Y-112800000I-1400000J0D01*
G01*
X136700000Y-112800000D02*
G75*
G02*
X139500000Y-112800000I1400000J0D01*
G01*
X140650000Y-113756250D02*
X140650000Y-111843750D01*
X136187500Y-115350000D02*
X140012500Y-115350000D01*
X136187500Y-110250000D02*
X140012500Y-110250000D01*
X135550000Y-113756250D02*
X135550000Y-111843750D01*
D13*
%TO.C,D16*%
X133879016Y-59957538D02*
X132273883Y-58352405D01*
X132273883Y-58352405D02*
X129526774Y-61099515D01*
X131131906Y-62704648D02*
X133879016Y-59957538D01*
%TO.C,D12*%
X143879016Y-59957538D02*
X142273883Y-58352405D01*
X142273883Y-58352405D02*
X139526774Y-61099515D01*
X141131906Y-62704648D02*
X143879016Y-59957538D01*
D14*
%TO.C,BT1*%
X142205000Y-41650000D02*
G75*
G02*
X142205000Y-49150000I10530060J-3750000D01*
G01*
X158010000Y-45430000D02*
X159010000Y-45430000D01*
X142205000Y-49150000D02*
X139510000Y-49150000D01*
X142205000Y-41650000D02*
X139510000Y-41650000D01*
X142120000Y-45930000D02*
X142120000Y-44930000D01*
X141620000Y-45430000D02*
X142620000Y-45430000D01*
X139510000Y-46870000D02*
X139510000Y-49150000D01*
X139510000Y-43930000D02*
X139510000Y-41650000D01*
D13*
%TO.C,D1*%
X157879016Y-89957538D02*
X156273883Y-88352405D01*
X156273883Y-88352405D02*
X153526774Y-91099515D01*
X155131906Y-92704648D02*
X157879016Y-89957538D01*
%TO.C,D5*%
X153879016Y-89957538D02*
X152273883Y-88352405D01*
X152273883Y-88352405D02*
X149526774Y-91099515D01*
X151131906Y-92704648D02*
X153879016Y-89957538D01*
%TO.C,D7*%
X153879016Y-69957538D02*
X152273883Y-68352405D01*
X152273883Y-68352405D02*
X149526774Y-71099515D01*
X151131906Y-72704648D02*
X153879016Y-69957538D01*
%TO.C,R1*%
X132145276Y-42222500D02*
X132654724Y-42222500D01*
X132145276Y-41177500D02*
X132654724Y-41177500D01*
%TO.C,C1*%
X121238748Y-39235000D02*
X121761252Y-39235000D01*
X121238748Y-37765000D02*
X121761252Y-37765000D01*
%TO.C,D19*%
X123879016Y-69957538D02*
X122273883Y-68352405D01*
X122273883Y-68352405D02*
X119526774Y-71099515D01*
X121131906Y-72704648D02*
X123879016Y-69957538D01*
%TO.C,D13*%
X133879016Y-89957538D02*
X132273883Y-88352405D01*
X132273883Y-88352405D02*
X129526774Y-91099515D01*
X131131906Y-92704648D02*
X133879016Y-89957538D01*
%TO.C,D4*%
X157879016Y-59957538D02*
X156273883Y-58352405D01*
X156273883Y-58352405D02*
X153526774Y-61099515D01*
X155131906Y-62704648D02*
X157879016Y-59957538D01*
D14*
%TO.C,SW1*%
X139500000Y-97800000D02*
G75*
G02*
X136700000Y-97800000I-1400000J0D01*
G01*
X136700000Y-97800000D02*
G75*
G02*
X139500000Y-97800000I1400000J0D01*
G01*
X140650000Y-98756250D02*
X140650000Y-96843750D01*
X136187500Y-100350000D02*
X140012500Y-100350000D01*
X136187500Y-95250000D02*
X140012500Y-95250000D01*
X135550000Y-98756250D02*
X135550000Y-96843750D01*
D13*
%TO.C,D18*%
X123879016Y-79957538D02*
X122273883Y-78352405D01*
X122273883Y-78352405D02*
X119526774Y-81099515D01*
X121131906Y-82704648D02*
X123879016Y-79957538D01*
%TD*%
M02*
