M48
; DRILL file {KiCad 8.0.5} date 2025-05-11T18:50:37-0400
; FORMAT={-:-/ absolute / inch / decimal}
; #@! TF.CreationDate,2025-05-11T18:50:37-04:00
; #@! TF.GenerationSoftware,Kicad,Pcbnew,8.0.5
; #@! TF.FileFunction,Plated,1,2,PTH
FMAT,2
INCH
; #@! TA.AperFunction,Plated,PTH,ViaDrill
T1C0.0118
; #@! TA.AperFunction,Plated,PTH,ComponentDrill
T2C0.0394
; #@! TA.AperFunction,Plated,PTH,ComponentDrill
T3C0.0461
; #@! TA.AperFunction,Plated,PTH,ComponentDrill
T4C0.0591
%
G90
G05
T1
X4.4882Y-1.3937
X4.5866Y-1.9488
X4.626Y-1.9094
X4.6535Y-1.6929
X4.6614Y-2.0551
X4.6614Y-2.1614
X4.6969Y-1.6929
X4.6969Y-1.7913
X4.7795Y-2.0551
X4.8228Y-2.5236
X4.8228Y-2.9843
X4.8317Y-1.7017
X4.8327Y-1.628
X4.8346Y-2.2992
X4.8465Y-1.8425
X4.8465Y-1.939
X4.878Y-2.5709
X4.8858Y-2.1614
X4.8898Y-3.4606
X4.9252Y-2.9882
X4.9567Y-2.063
X4.9567Y-2.1614
X4.9567Y-2.4724
X5.0197Y-1.6772
X5.0315Y-2.7205
X5.0591Y-1.9606
X5.0709Y-2.374
X5.0852Y-2.0315
X5.1088Y-1.901
X5.122Y-2.6299
X5.126Y-1.9409
X5.1336Y-1.6848
X5.1378Y-2.5039
X5.1378Y-2.8976
X5.1378Y-3.2913
X5.1378Y-3.685
X5.1772Y-1.5827
X5.1772Y-2.1811
X5.189Y-1.685
X5.2146Y-2.6359
X5.252Y-1.8701
X5.2559Y-3.7205
X5.3115Y-1.8701
X5.3248Y-1.4528
X5.3307Y-2.122
X5.5315Y-2.248
X5.5315Y-2.5039
X5.5315Y-2.8976
X5.5315Y-3.2913
X5.5906Y-3.6457
X5.7431Y-2.249
X5.8898Y-2.185
X5.924Y-3.2913
X5.9252Y-2.5039
X5.9252Y-2.8976
X6.0039Y-3.5984
X6.0354Y-3.685
X6.0815Y-2.6378
X6.0815Y-2.8976
X6.0815Y-3.2913
X6.0815Y-3.685
X6.1407Y-2.5876
X6.1496Y-3.685
X6.2126Y-3.185
X6.248Y-2.9094
X6.3346Y-2.7795
T2
X5.0866Y-1.3484
X5.1866Y-1.3484
X5.2866Y-1.3484
X5.3858Y-1.3484
X5.4858Y-1.3484
X5.5858Y-1.3484
T3
X6.3071Y-1.7874
T4
X5.5197Y-1.7874
M30
